<?xml version="1.0" encoding="UTF-8"?>
<!DOCTYPE svg PUBLIC "-//W3C//DTD SVG 1.1//EN" "http://www.w3.org/Graphics/SVG/1.1/DTD/svg11.dtd">
<svg width="1728pt" height="320pt" viewBox="0 0 1728 320" version="1.1" xmlns="http://www.w3.org/2000/svg">
  <g id="#347effff">
    <path fill="#347eff" opacity="1.00" d=" M 251.92 0.00 L 278.17 0.00 C 285.06 1.40 292.49 -1.05 299.15 1.38 C 301.48 2.50 303.42 5.13 302.31 7.78 C 289.84 51.76 277.03 95.66 264.64 139.66 C 269.52 141.00 272.82 136.82 276.39 134.33 C 287.61 125.90 298.81 117.44 310.02 109.00 C 314.82 105.33 320.96 103.75 326.93 103.85 C 343.99 103.93 361.04 103.80 378.10 103.91 C 380.14 103.65 381.53 105.02 382.56 106.58 C 346.99 133.65 311.38 160.69 275.79 187.76 C 268.32 194.08 259.23 199.30 249.13 199.00 C 227.73 199.00 206.32 199.01 184.92 199.00 C 181.34 199.04 177.19 197.98 175.38 194.57 C 174.35 192.94 174.88 190.98 175.30 189.25 C 192.14 130.47 209.01 71.70 225.81 12.91 C 226.87 9.55 227.26 5.52 230.34 3.29 C 236.32 -1.77 244.91 1.44 251.92 0.00 Z" />
    <path fill="#347eff" opacity="1.00" d=" M 116.52 3.57 C 119.06 1.24 122.56 0.19 125.97 0.36 C 130.93 0.45 135.91 0.19 140.87 0.51 C 143.19 0.43 145.93 2.50 144.76 5.03 C 132.70 47.41 120.46 89.75 108.39 132.13 C 106.66 139.64 101.66 146.07 95.60 150.67 C 75.97 165.68 56.36 180.72 36.75 195.75 C 33.15 198.55 28.41 199.17 23.98 199.02 C 16.98 198.90 9.97 199.17 2.97 198.90 C 1.24 198.98 0.39 197.34 0.01 195.91 C 1.00 194.91 2.02 193.94 3.13 193.06 C 25.39 175.99 47.61 158.87 69.87 141.79 C 72.87 139.49 75.74 136.95 77.94 133.85 C 79.97 131.06 80.62 127.60 81.58 124.37 C 92.45 86.35 103.38 48.35 114.24 10.33 C 114.96 8.07 115.29 5.62 116.52 3.57 Z" />
    <path fill="#347eff" opacity="1.00" d=" M 464.19 2.27 C 510.76 1.92 557.36 2.22 603.94 2.12 C 656.31 2.12 708.68 2.12 761.05 2.12 C 767.64 2.17 774.57 3.12 780.16 6.87 C 783.15 8.92 785.92 12.14 785.64 16.01 C 785.48 20.26 782.43 23.64 779.41 26.31 C 755.45 47.05 731.48 67.78 707.52 88.52 C 704.61 90.99 701.88 93.83 698.28 95.27 C 692.80 97.48 686.78 97.58 680.96 97.51 C 662.62 97.45 644.28 97.59 625.95 97.44 C 622.53 97.75 619.59 93.09 622.67 90.71 C 647.98 69.65 673.55 48.87 698.95 27.91 C 700.33 26.70 702.06 25.00 701.25 22.98 C 699.54 20.23 695.95 19.99 693.04 19.99 C 615.68 20.02 538.33 19.99 460.97 20.00 C 459.00 20.00 455.69 19.68 455.66 17.07 C 456.32 13.70 457.40 10.43 458.36 7.14 C 458.93 4.42 461.60 2.72 464.19 2.27 Z" />
    <path fill="#347eff" opacity="1.00" d=" M 1258.33 3.55 C 1352.92 3.42 1447.51 3.55 1542.10 3.49 C 1544.71 3.62 1548.47 3.32 1549.73 6.21 C 1549.22 9.94 1547.89 13.51 1546.87 17.11 C 1545.70 21.21 1540.53 21.37 1537.02 21.51 C 1505.66 21.49 1474.30 21.52 1442.95 21.49 C 1438.82 21.45 1433.40 23.09 1432.67 27.80 C 1421.53 66.88 1410.21 105.93 1399.14 145.03 C 1397.75 148.73 1402.69 149.63 1405.33 149.70 C 1441.54 149.84 1477.76 149.66 1513.97 149.79 C 1517.10 149.97 1521.43 150.47 1522.54 154.01 C 1522.88 156.99 1521.47 159.82 1520.79 162.67 C 1518.24 171.17 1516.06 179.78 1513.34 188.22 C 1510.48 193.03 1504.33 194.67 1499.06 194.74 C 1396.99 194.76 1294.92 194.75 1192.85 194.75 C 1189.82 194.64 1186.12 194.46 1184.24 191.70 C 1183.04 190.04 1183.87 187.96 1184.31 186.20 C 1187.26 176.14 1190.03 166.02 1193.02 155.97 C 1194.55 151.07 1200.53 149.99 1204.99 149.76 C 1241.34 149.73 1277.69 149.76 1314.05 149.75 C 1317.94 149.86 1322.78 148.24 1323.91 144.08 C 1334.78 106.28 1345.57 68.46 1356.43 30.67 C 1356.94 28.50 1357.99 26.36 1357.83 24.10 C 1357.04 21.72 1354.06 21.57 1351.98 21.51 C 1319.67 21.50 1287.35 21.49 1255.04 21.51 C 1252.70 21.43 1249.63 21.55 1248.43 19.09 C 1249.15 15.10 1250.39 11.20 1251.65 7.34 C 1252.82 4.89 1255.74 3.72 1258.33 3.55 Z" />
    <path fill="#347eff" opacity="1.00" d=" M 861.43 4.53 C 862.87 4.02 864.43 4.03 865.96 3.99 C 963.30 4.01 1060.63 4.00 1157.96 4.00 C 1160.23 4.18 1163.58 3.81 1164.64 6.41 C 1164.30 10.35 1162.74 14.09 1161.69 17.88 C 1160.82 21.09 1156.95 21.73 1154.11 21.86 C 1115.40 21.90 1076.68 21.86 1037.96 21.88 C 1034.27 21.89 1029.21 22.80 1028.11 26.96 C 1023.57 42.56 1019.19 58.21 1014.65 73.81 C 1014.32 75.32 1013.39 77.12 1014.63 78.48 C 1016.26 80.16 1018.83 80.00 1021.00 80.13 C 1064.03 80.11 1107.05 80.13 1150.08 80.12 C 1152.23 80.21 1155.83 80.16 1156.13 83.01 C 1155.47 86.77 1154.25 90.41 1153.12 94.05 C 1152.11 97.36 1147.99 97.85 1145.06 97.99 C 1102.01 98.02 1058.97 97.98 1015.92 98.00 C 1011.70 97.92 1006.70 100.17 1005.81 104.68 C 1001.85 118.83 997.63 132.90 993.75 147.07 C 992.66 151.47 997.94 153.43 1001.44 153.45 C 1044.62 153.57 1087.81 153.44 1131.00 153.52 C 1133.92 153.37 1138.40 154.25 1138.21 158.03 C 1135.48 168.78 1132.10 179.36 1129.20 190.06 C 1128.46 192.21 1128.22 194.87 1126.16 196.23 C 1122.94 198.52 1118.79 198.37 1115.03 198.39 C 1057.35 198.35 999.67 198.40 942.00 198.37 C 932.43 198.22 922.04 197.66 914.00 191.87 C 909.54 188.76 908.25 182.70 909.87 177.70 C 916.83 153.36 923.79 129.02 930.80 104.69 C 931.15 103.48 931.37 102.26 931.46 101.01 C 930.30 98.08 926.69 98.10 924.07 98.00 C 890.34 97.99 856.61 98.02 822.88 97.99 C 820.96 97.97 817.83 97.58 817.87 95.05 C 818.53 91.56 819.66 88.18 820.67 84.78 C 821.46 81.65 824.89 80.01 827.94 80.13 C 861.64 80.10 895.35 80.14 929.06 80.11 C 933.18 79.97 938.79 78.59 939.64 73.83 C 944.05 58.19 948.65 42.59 953.01 26.94 C 953.62 25.28 952.19 23.86 950.87 23.16 C 948.20 21.58 944.97 21.92 942.01 21.86 C 914.65 21.91 887.30 21.85 859.94 21.89 C 858.06 21.83 855.65 21.99 854.55 20.13 C 854.53 16.39 856.23 12.87 857.11 9.27 C 857.52 7.01 859.26 5.23 861.43 4.53 Z" />
    <path fill="#347eff" opacity="1.00" d=" M 1661.50 6.76 C 1663.55 5.93 1665.80 6.00 1668.01 5.98 C 1685.70 6.08 1703.41 5.89 1721.11 6.07 C 1724.35 6.04 1728.40 9.15 1726.79 12.69 C 1716.03 50.07 1705.37 87.49 1694.62 124.88 C 1693.67 129.62 1688.28 131.01 1684.11 130.88 C 1666.04 130.85 1647.96 130.93 1629.90 130.84 C 1626.94 130.83 1622.48 128.85 1623.42 125.24 C 1634.08 87.75 1644.88 50.29 1655.60 12.81 C 1656.18 9.81 1658.81 7.84 1661.50 6.76 Z" />
    <path fill="#347eff" opacity="1.00" d=" M 550.22 41.16 C 552.09 40.71 554.03 40.75 555.95 40.73 C 573.97 40.79 591.98 40.71 609.99 40.76 C 614.07 40.40 619.29 44.11 617.47 48.60 C 609.37 76.85 601.27 105.11 593.19 133.37 C 590.49 143.24 583.77 151.98 574.37 156.28 C 554.24 167.51 534.13 178.76 514.01 190.01 C 509.12 192.72 504.29 195.72 498.82 197.14 C 492.05 198.92 484.99 199.06 478.03 199.00 C 454.66 198.99 431.29 199.01 407.93 199.00 C 406.23 199.03 403.96 198.81 403.39 196.89 C 402.50 194.77 404.55 193.09 406.26 192.31 C 438.26 175.26 470.25 158.20 502.24 141.14 C 506.29 138.96 510.52 136.98 514.03 133.94 C 517.59 130.90 520.05 126.70 521.33 122.21 C 528.35 97.66 535.41 73.13 542.41 48.58 C 543.29 44.86 546.65 42.14 550.22 41.16 Z" />
    <path fill="#347eff" opacity="1.00" d=" M 1618.38 157.64 C 1620.47 156.89 1622.74 156.88 1624.97 156.86 C 1642.00 156.91 1659.03 156.84 1676.06 156.89 C 1678.68 156.85 1681.65 157.47 1683.19 159.84 C 1684.50 161.45 1683.47 163.55 1683.08 165.31 C 1680.24 174.79 1677.69 184.36 1674.83 193.84 C 1673.69 197.98 1668.81 199.03 1665.09 199.00 C 1646.69 198.97 1628.28 199.07 1609.88 198.95 C 1606.97 198.89 1602.63 196.55 1603.96 193.11 C 1606.74 183.26 1609.57 173.43 1612.40 163.59 C 1612.99 160.60 1615.62 158.59 1618.38 157.64 Z" />
    <path fill="#347eff" opacity="1.00" d=" M 927.61 264.73 C 927.98 262.16 930.46 260.91 932.86 261.14 C 950.57 261.08 968.28 261.15 986.00 261.11 C 991.23 261.16 997.26 261.82 1000.96 265.97 C 1003.56 269.11 1001.68 273.24 1000.81 276.66 C 999.30 281.20 998.82 286.60 994.85 289.81 C 990.16 293.85 983.76 294.41 977.94 295.48 C 983.53 303.03 989.51 310.29 995.04 317.89 C 994.71 318.42 994.05 319.47 993.71 320.00 L 971.15 320.00 C 964.27 312.67 958.96 304.01 952.49 296.34 C 951.18 294.72 948.88 295.13 947.08 294.98 C 941.38 295.09 935.67 294.77 929.99 295.16 C 926.91 295.23 927.02 298.94 926.15 301.07 C 924.06 307.35 923.23 314.14 920.05 320.00 L 912.32 320.00 C 912.56 317.52 913.10 315.09 913.81 312.70 C 918.49 296.73 922.96 280.70 927.61 264.73 M 935.60 268.46 C 934.19 272.85 932.88 277.30 931.91 281.82 C 941.90 282.77 951.98 282.00 962.02 282.25 C 966.85 282.09 972.63 283.06 976.45 279.37 C 978.19 276.57 978.79 273.17 979.45 269.98 C 978.57 266.77 974.64 266.62 971.93 266.52 C 961.62 266.46 951.31 266.52 941.01 266.49 C 939.13 266.57 936.51 266.43 935.60 268.46 Z" />
    <path fill="#347eff" opacity="1.00" d=" M 1015.99 261.77 C 1018.56 260.86 1022.32 260.37 1024.60 261.92 C 1021.16 275.51 1016.81 288.88 1013.22 302.43 C 1012.10 305.24 1015.65 306.74 1017.92 306.59 C 1031.60 306.68 1045.29 306.59 1058.98 306.63 C 1062.34 306.69 1066.66 305.59 1067.60 301.86 C 1071.42 289.05 1074.84 276.11 1078.75 263.33 C 1079.44 260.55 1082.85 261.22 1084.99 261.09 C 1090.48 261.37 1096.07 260.56 1101.49 261.57 C 1101.98 263.16 1101.40 264.78 1101.02 266.33 C 1097.25 279.19 1093.61 292.08 1089.93 304.95 C 1089.09 308.04 1087.72 311.08 1085.32 313.26 C 1080.43 317.94 1073.40 318.91 1067.01 320.00 L 1016.63 320.00 C 1012.42 319.12 1007.67 318.69 1004.40 315.60 C 1001.31 312.32 1002.63 307.48 1003.77 303.65 C 1007.97 289.73 1011.55 275.60 1015.99 261.77 Z" />
    <path fill="#347eff" opacity="1.00" d=" M 1133.32 268.38 C 1135.95 265.00 1139.14 261.28 1143.81 261.23 C 1154.56 260.95 1165.33 261.22 1176.09 261.10 C 1178.99 261.06 1183.21 261.30 1183.99 264.82 C 1188.33 282.57 1192.35 300.40 1196.62 318.17 C 1196.07 318.63 1194.99 319.54 1194.45 320.00 L 1174.14 320.00 C 1169.96 317.31 1171.42 311.40 1168.96 307.69 C 1167.75 307.13 1166.37 307.30 1165.11 307.22 C 1148.39 307.27 1131.67 307.27 1114.95 307.22 C 1113.46 307.27 1111.96 307.17 1110.55 307.61 C 1105.78 311.08 1103.41 317.19 1098.10 320.00 L 1092.07 320.00 C 1092.31 318.71 1092.46 317.32 1093.40 316.31 C 1106.71 300.33 1120.05 284.39 1133.32 268.38 M 1132.81 279.85 C 1129.07 284.70 1124.51 288.95 1121.39 294.24 C 1136.25 294.32 1151.18 294.74 1165.99 294.04 L 1166.45 292.95 C 1164.91 284.24 1162.77 275.63 1161.03 266.95 C 1155.42 266.34 1149.65 266.13 1144.07 266.93 C 1139.82 270.73 1136.63 275.61 1132.81 279.85 Z" />
    <path fill="#347eff" opacity="1.00" d=" M 1250.54 261.15 C 1252.95 261.14 1255.40 260.95 1257.82 261.31 C 1259.29 261.94 1259.01 263.72 1259.26 265.01 C 1260.37 279.73 1261.50 294.45 1262.72 309.16 C 1263.18 309.12 1264.10 309.04 1264.56 309.01 C 1272.09 297.71 1279.53 286.37 1287.05 275.06 C 1290.08 270.76 1292.56 266.04 1295.98 262.02 C 1299.24 260.12 1303.38 261.29 1307.02 260.96 C 1308.98 261.23 1312.51 260.18 1312.95 263.00 C 1314.67 275.87 1315.75 288.82 1317.41 301.70 C 1320.12 300.70 1321.23 297.87 1322.68 295.61 C 1328.81 285.48 1335.09 275.43 1341.21 265.29 C 1342.36 263.53 1343.55 261.09 1346.04 261.20 C 1352.47 261.13 1358.97 260.74 1365.38 261.62 C 1355.01 279.05 1343.99 296.09 1333.45 313.42 C 1331.85 316.22 1330.08 319.26 1326.67 320.00 L 1313.22 320.00 C 1312.06 319.61 1310.92 319.17 1309.81 318.74 C 1308.25 306.39 1307.69 293.90 1305.44 281.66 C 1298.70 290.66 1292.87 300.32 1286.46 309.56 C 1283.69 313.26 1281.93 318.24 1277.27 320.00 L 1257.64 320.00 C 1256.53 319.36 1255.49 318.69 1254.45 318.02 C 1253.73 308.52 1252.97 299.03 1252.24 289.54 C 1251.79 280.08 1250.17 270.63 1250.54 261.15 Z" />
    <path fill="#347eff" opacity="1.00" d=" M 1372.42 266.44 C 1377.51 262.10 1384.53 261.18 1390.99 261.11 C 1405.67 261.14 1420.35 261.09 1435.04 261.14 C 1440.69 261.39 1446.91 261.80 1451.53 265.47 C 1454.34 267.63 1455.04 271.56 1454.05 274.83 C 1451.48 284.27 1448.64 293.63 1446.03 303.05 C 1444.98 307.07 1443.00 311.00 1439.61 313.55 C 1434.02 318.00 1426.66 318.91 1419.84 320.00 L 1374.69 320.00 C 1369.90 319.10 1364.56 318.63 1360.79 315.23 C 1357.62 312.21 1358.26 307.37 1359.35 303.57 C 1362.05 294.22 1364.75 284.88 1367.38 275.51 C 1368.29 272.15 1369.66 268.72 1372.42 266.44 M 1383.25 267.08 C 1379.21 267.73 1376.98 271.44 1376.35 275.18 C 1373.85 284.49 1370.87 293.68 1368.53 303.03 C 1368.17 305.51 1371.04 306.63 1373.08 306.59 C 1386.73 306.68 1400.40 306.59 1414.06 306.63 C 1417.62 306.64 1422.31 305.53 1423.37 301.60 C 1426.17 291.73 1429.12 281.90 1431.79 272.00 C 1432.45 269.92 1430.71 268.06 1428.90 267.38 C 1424.41 265.89 1419.60 266.70 1414.97 266.50 C 1404.41 266.82 1393.74 265.81 1383.25 267.08 Z" />
    <path fill="#347eff" opacity="1.00" d=" M 1465.96 263.96 C 1466.54 261.28 1469.67 261.07 1471.91 261.10 C 1489.63 261.15 1507.34 261.10 1525.06 261.13 C 1529.98 261.26 1535.57 262.08 1539.01 265.98 C 1541.65 269.10 1539.73 273.26 1538.87 276.69 C 1537.36 281.23 1536.87 286.65 1532.89 289.86 C 1528.21 293.79 1521.91 294.48 1516.11 295.36 C 1521.46 303.10 1527.59 310.27 1533.15 317.86 C 1532.79 318.39 1532.09 319.46 1531.74 320.00 L 1509.24 320.00 C 1503.60 314.16 1499.23 307.23 1494.17 300.89 C 1492.16 298.62 1490.67 294.80 1487.08 295.05 C 1480.69 295.01 1474.28 294.79 1467.91 295.18 C 1465.15 295.31 1465.13 298.61 1464.36 300.56 C 1462.24 307.01 1461.31 313.93 1458.18 320.00 L 1450.39 320.00 C 1450.93 314.58 1452.97 309.49 1454.34 304.25 C 1458.25 290.84 1461.92 277.34 1465.96 263.96 M 1473.46 269.06 C 1472.20 273.28 1470.81 277.48 1470.04 281.82 C 1479.98 282.76 1490.00 282.00 1499.97 282.25 C 1504.82 282.08 1510.58 283.07 1514.46 279.43 C 1516.30 276.64 1516.80 273.15 1517.54 269.95 C 1516.62 266.74 1512.69 266.64 1509.98 266.52 C 1499.65 266.46 1489.32 266.52 1479.00 266.49 C 1476.95 266.48 1473.98 266.60 1473.46 269.06 Z" />
    <path fill="#347eff" opacity="1.00" d=" M 1554.17 261.92 C 1556.49 260.32 1559.93 261.22 1562.67 261.39 C 1561.28 269.66 1557.72 277.44 1556.31 285.71 C 1558.83 287.41 1562.15 286.35 1565.03 286.64 C 1569.87 286.23 1575.42 287.90 1579.62 284.69 C 1590.35 277.40 1601.12 270.13 1611.88 262.87 C 1615.10 260.48 1619.28 261.20 1623.03 261.11 C 1628.87 261.31 1634.77 260.62 1640.56 261.69 C 1634.14 267.06 1626.84 271.25 1620.03 276.11 C 1613.49 280.80 1606.43 284.80 1600.29 290.03 C 1608.48 299.60 1617.48 308.44 1625.74 317.95 C 1625.33 318.47 1624.52 319.49 1624.11 320.00 L 1599.95 320.00 C 1596.29 317.73 1593.84 314.12 1591.01 310.99 C 1585.96 305.31 1581.07 299.50 1575.98 293.88 C 1574.33 291.67 1571.34 292.37 1568.99 292.22 C 1564.72 292.33 1560.44 292.02 1556.19 292.40 C 1553.19 292.68 1553.14 296.35 1552.31 298.54 C 1550.00 305.66 1548.84 313.23 1545.58 320.00 L 1537.90 320.00 C 1539.01 311.78 1542.18 304.03 1544.19 296.02 C 1547.59 284.68 1550.43 273.14 1554.17 261.92 Z" />
    <path fill="#347eff" opacity="1.00" d=" M 1649.10 265.18 C 1653.26 261.88 1658.78 261.06 1663.95 261.11 C 1680.33 261.15 1696.71 261.08 1713.09 261.14 C 1717.48 261.34 1722.51 261.88 1725.67 265.31 C 1728.00 268.04 1726.58 271.79 1725.73 274.82 C 1725.19 276.58 1724.53 279.18 1722.13 278.82 C 1715.55 278.76 1708.89 279.33 1702.36 278.49 C 1701.52 275.29 1703.71 272.25 1703.90 269.07 C 1702.77 266.38 1699.35 266.66 1696.96 266.50 C 1685.96 266.48 1674.95 266.52 1663.95 266.49 C 1660.92 266.54 1657.30 266.62 1655.25 269.20 C 1653.74 271.88 1653.03 274.98 1652.65 278.01 C 1653.13 279.97 1655.28 280.34 1656.97 280.74 C 1675.42 284.14 1693.91 287.39 1712.36 290.85 C 1715.89 291.56 1720.83 293.61 1720.21 298.04 C 1719.19 302.76 1718.16 307.65 1715.77 311.89 C 1711.60 318.00 1703.57 318.87 1696.88 320.00 L 1646.37 320.00 C 1642.26 319.20 1637.42 318.82 1634.51 315.45 C 1631.84 311.68 1634.13 307.01 1635.07 303.05 C 1635.78 301.22 1635.83 298.85 1637.35 297.48 C 1639.96 296.81 1642.71 297.19 1645.39 297.20 C 1644.83 299.96 1644.14 302.69 1643.53 305.44 C 1645.24 306.12 1647.03 306.74 1648.94 306.64 C 1662.32 306.61 1675.70 306.63 1689.08 306.63 C 1691.45 306.64 1694.55 306.23 1695.54 303.67 C 1696.56 301.02 1697.52 298.23 1697.58 295.36 C 1696.58 293.81 1694.61 293.62 1693.01 293.23 C 1680.46 290.94 1667.94 288.55 1655.41 286.26 C 1651.92 285.54 1648.05 285.16 1645.28 282.72 C 1643.42 281.10 1643.36 278.42 1644.00 276.23 C 1645.04 272.33 1645.79 267.88 1649.10 265.18 Z" />
  </g>
</svg>